<?xml version="1.0" encoding="UTF-8"?>
<!DOCTYPE svg PUBLIC "-//W3C//DTD SVG 1.0//EN" "http://www.w3.org/TR/2001/REC-SVG-20010904/DTD/svg10.dtd">
<!-- Creator: CorelDRAW 2017 -->
<svg xmlns="http://www.w3.org/2000/svg" xml:space="preserve" width="128px" height="162px" version="1.0" shape-rendering="geometricPrecision" text-rendering="geometricPrecision" image-rendering="optimizeQuality" fill-rule="evenodd" clip-rule="evenodd"
viewBox="0 0 2185600 2765800"
 xmlns:xlink="http://www.w3.org/1999/xlink">
 <g id="Слой_x0020_1">
  <metadata id="CorelCorpID_0Corel-Layer"/>
  <g id="_1924374544176">
   <g>
    <path fill="#E6E6E6" d="M1092800 1521300c114600,-1700 265300,-89100 334300,-190400 68900,-101200 113300,-327500 137800,-496600 24600,-169200 21100,-411000 -68300,-530900 -89500,-119900 -159200,-174400 -403800,-172900 -244600,-1500 -314300,53000 -403800,172900 -89400,119900 -92900,361700 -68300,530900 24600,169100 68900,395400 137800,496600 69000,101300 219700,188700 334300,190400z"/>
    <path fill="#333333" d="M1092800 107400c58000,-48500 273200,-18400 362800,54900 80400,65900 166300,158600 159400,330500 -2700,65500 -6900,270400 -37000,354700l-27200 76200c-1400,4000 30000,-408200 -98800,-487100 -124300,-96500 -223700,27000 -359200,-4900 -135500,31900 -234900,-91600 -359200,4900 -128800,78900 -97300,491100 -98800,487100l-27200 -76200c-30100,-84300 -34300,-289200 -36900,-354700 -7000,-171900 78900,-264600 159400,-330500 89500,-73300 304800,-103400 362700,-54900z"/>
   </g>
   <path fill="#333333" d="M1570000 1045500c5500,3800 12200,6100 19400,6100l80100 0c18800,0 34200,-15400 34200,-34200l0 -233100c20200,-58300 31100,-120700 31100,-185800 0,-330500 -287400,-598500 -642000,-598500 -354500,0 -642000,268000 -642000,598500 0,65700 10900,128400 31100,186800l0 232100c0,18800 15400,34200 34200,34200l80100 0c18800,0 34100,-15400 34100,-34200l0 -326000c0,-18800 -15300,-34200 -34100,-34200l-78200 0c-900,-12800 -1400,-25700 -1400,-38600 0,-312900 258000,-566500 576200,-566500 318200,0 576200,253600 576200,566500 0,13000 -500,25800 -1300,38600l-78300 0c-18800,0 -34100,15400 -34100,34200 0,95100 0,190300 0,285400 -59700,191200 -188700,302400 -386300,332100 -20700,-29800 -55000,-36200 -76200,-36200 -45300,0 -82100,25900 -82100,57700 0,31900 36800,57700 82100,57700 37600,0 69400,-17800 79000,-42100 193100,-31000 325900,-133300 398200,-300500z"/>
   <path fill="white" d="M1520800 1645800c101800,92900 223000,109100 337300,170900 129800,70200 214000,158000 259400,289000 45400,130900 69700,562300 68000,660000l-1092700 100 -1092700 -100c-1700,-97700 22600,-529100 68000,-660000 45400,-131000 129700,-218800 259400,-289000 114300,-61800 235500,-78000 337300,-170900l428000 328700 428000 -328700z"/>
   <path fill="#E6E6E6" d="M1363500 1401700l0 0c41900,108900 95400,187300 157300,244100l-428000 328700 -428000 -328700c61900,-56800 115500,-135200 157300,-244100l0 0c77000,68100 184200,118300 270700,119600 86600,-1300 193700,-51500 270700,-119600z"/>
  </g>
 </g>
</svg>
