<?xml version="1.0" encoding="UTF-8"?>
<!DOCTYPE svg PUBLIC "-//W3C//DTD SVG 1.0//EN" "http://www.w3.org/TR/2001/REC-SVG-20010904/DTD/svg10.dtd">
<!-- Creator: CorelDRAW 2017 -->
<svg xmlns="http://www.w3.org/2000/svg" xml:space="preserve" width="72px" height="72px" version="1.0" style="shape-rendering:geometricPrecision; text-rendering:geometricPrecision; image-rendering:optimizeQuality; fill-rule:evenodd; clip-rule:evenodd"
viewBox="0 0 309200 309200"
 xmlns:xlink="http://www.w3.org/1999/xlink">
 <defs>
  <style type="text/css">
   <![CDATA[
    .fil0 {fill:white}
   ]]>
  </style>
 </defs>
 <g id="Слой_x0020_1">
  <metadata id="CorelCorpID_0Corel-Layer"/>
  <path class="fil0" d="M25800 0l257600 0c14200,0 25800,11600 25800,25800l0 257600c0,14200 -11600,25800 -25800,25800l-257600 0c-14200,0 -25800,-11600 -25800,-25800l0 -257600c0,-14200 11600,-25800 25800,-25800zm141200 22000l21700 0c4300,0 7700,3500 7700,7700l0 56300c0,4200 -3400,7700 -7700,7700l-21700 0 0 -71700zm0 186200l21700 0c4300,0 7700,3500 7700,7700l0 63600c0,4300 -3400,7700 -7700,7700l-21700 0 0 -79000zm-33400 -57200c0,31600 9000,57200 20100,57200l0 78900c-32600,0 -59000,-59300 -59000,-132500 0,-73200 26400,-132500 59000,-132500l0 71600c-11100,0 -20100,25700 -20100,57300z"/>
 </g>
</svg>
