<?xml version="1.0" encoding="UTF-8"?>
<!DOCTYPE svg PUBLIC "-//W3C//DTD SVG 1.0//EN" "http://www.w3.org/TR/2001/REC-SVG-20010904/DTD/svg10.dtd">
<!-- Creator: CorelDRAW 2017 -->
<svg xmlns="http://www.w3.org/2000/svg" xml:space="preserve" width="162px" height="162px" version="1.0" shape-rendering="geometricPrecision" text-rendering="geometricPrecision" image-rendering="optimizeQuality" fill-rule="evenodd" clip-rule="evenodd"
viewBox="0 0 5717600 5717600"
 xmlns:xlink="http://www.w3.org/1999/xlink">
 <g id="Слой_x0020_1">
  <metadata id="CorelCorpID_0Corel-Layer"/>
  <path fill="white" d="M2749100 5002900c-22500,-161000 197800,-175000 219000,-42000 24200,152000 -200500,174500 -219000,42000zm41800 -2685100c319100,-41800 573100,193300 609000,466700 42300,322900 -191700,578900 -466800,615300 -320800,42500 -579400,-187700 -616400,-469500 -42500,-324200 193400,-575600 474200,-612500zm2155900 436600c64600,-22800 121000,14600 139600,65900 23700,65700 -14200,128100 -66700,144500 -146000,45600 -211800,-161300 -72900,-210400zm-4245500 -1200c149400,-45700 199900,171600 73700,210500 -153400,47200 -201600,-171400 -73700,-210500zm2116700 -2117800c128700,-65600 221700,152500 86000,202700 -136000,50300 -230000,-129300 -86000,-202700zm-2818000 1986800l0 78300c75100,117700 81400,373800 154200,417500 107400,64500 336100,137300 219100,315000 -59500,90300 -189200,53500 -308400,41700 18100,137600 151400,288000 232500,404400 49600,71300 49900,58300 146700,75800 126300,23000 254000,44700 233500,195500 -17200,126400 -142300,135100 -281700,154400 10800,88000 118100,145000 177700,191500l219300 163300c141600,-8700 333900,-73500 383200,71600 25700,75600 -11700,144900 -52800,178000 -46200,37000 -121300,52700 -160600,95300 69700,78100 314100,150300 440800,192400 108700,36100 200800,-99800 326600,-91600 61700,4000 112500,42800 129300,92700 21700,64800 600,127900 -34100,167000 -50100,56400 -85200,70000 -109000,122900 181500,52400 135800,36300 360800,41000 250000,5300 159400,4000 296100,-118100 207700,-185400 397700,18200 209000,284000l22600 22800 96500 0c101700,-63900 377500,-85500 417500,-153300 62500,-106000 135000,-336800 314500,-220300 89700,58300 54600,190800 41000,309300 115800,-17300 169500,-68300 279300,-146300 43200,-30700 83200,-56400 126100,-86300 72500,-50600 57700,-49100 75900,-147800 22300,-120800 43300,-256500 195000,-232800 132200,20700 133500,144500 154700,280400 92800,-10200 202000,-193200 273000,-284400 28400,-36600 57500,-68600 81900,-111300 -9100,-142300 -74100,-332500 71100,-383200 177700,-62000 224900,167700 272900,213200 74600,-65800 95700,-167900 140500,-291500 19600,-54300 36600,-102700 55000,-158400 18800,-57200 -15700,-96700 -40800,-150200 -20500,-43600 -54500,-101200 -53900,-156700 1500,-152800 177200,-188000 261600,-106900 19500,18700 34900,36300 54900,56700 36600,37400 27400,34900 66500,52900 54800,-178400 36000,-154700 41500,-371300 6300,-244900 -9200,-157000 -124400,-290400 -71300,-82500 -107000,-204800 12400,-267000 140000,-73000 205600,63000 300100,57900l0 -112900c-40200,-62900 -71600,-215600 -95200,-297300 -21800,-75500 -14400,-93900 -73900,-127600 -101500,-57300 -193200,-83800 -223600,-167300 -19400,-53200 -1400,-114000 23300,-147600 61700,-84000 193000,-45600 304700,-34100 -13100,-94300 -21000,-96900 -63600,-160500l-177800 -257800c-86300,-123200 -424200,-21700 -369300,-266700 28000,-124800 143300,-123000 278500,-146200 -3000,-40700 -41200,-88000 -68700,-108700l-327200 -245300c-143000,8300 -331200,73200 -383100,-71600 -63100,-176600 167400,-225100 213000,-273000 -63000,-75000 -169300,-96400 -291500,-140000 -216000,-77200 -161500,-83100 -324200,-7800 -79200,36600 -241500,99100 -283100,-55000 -43300,-160500 99400,-177700 145500,-280900 -74000,-22200 -76500,-35300 -170800,-37000 -473200,-8400 -319300,-31900 -485200,115100 -208400,184600 -399500,-20900 -210000,-285000 -2100,-2000 -5400,-4400 -7000,-5300l-41800 -17400 -69600 0c-63100,40300 -215400,71200 -297400,95000 -122400,35600 -101600,19400 -194200,197100 -62700,120300 -166600,137200 -248000,77200 -83800,-61900 -44500,-192700 -34100,-304700 -93600,13400 -97900,20700 -160600,63700l-257600 178100c-123500,87100 -19800,423800 -266800,368700 -122600,-27300 -126000,-144500 -146500,-278600 -81500,7600 -146900,120000 -190800,176800l-163600 219600c8500,141900 74800,332400 -71200,383000 -180900,62600 -208600,-153300 -273300,-213100 -72200,61100 -97700,172200 -139500,291800 -16600,47300 -49300,124800 -58500,167000 -19900,89900 117300,203400 95100,328100 -9400,52600 -47500,98200 -99400,112200 -135600,36500 -193900,-84400 -247200,-126200 -26900,-21100 -4200,-6200 -34100,-19500 -51400,171800 -36600,160200 -40700,372100 -4500,234500 -8300,142000 119100,283900 183300,204300 -16500,400800 -285300,210200 -11700,12300 -3900,1700 -14400,19700 -1500,2500 -6600,16700 -8000,20100z"/>
 </g>
</svg>
