<?xml version="1.0" encoding="UTF-8"?>
<!DOCTYPE svg PUBLIC "-//W3C//DTD SVG 1.0//EN" "http://www.w3.org/TR/2001/REC-SVG-20010904/DTD/svg10.dtd">
<!-- Creator: CorelDRAW 2017 -->
<svg xmlns="http://www.w3.org/2000/svg" xml:space="preserve" width="162px" height="162px" version="1.0" shape-rendering="geometricPrecision" text-rendering="geometricPrecision" image-rendering="optimizeQuality" fill-rule="evenodd" clip-rule="evenodd"
viewBox="0 0 16100600 16100600"
 xmlns:xlink="http://www.w3.org/1999/xlink">
 <g id="Слой_x0020_1">
  <metadata id="CorelCorpID_0Corel-Layer"/>
  <path fill="#FEFEFE" d="M5565600 993900l4969400 0 0 14709200 -4969400 0 0 -14709200zm-397500 0l198800 0 0 14709200 -198800 0 0 -14709200zm-5168100 0l198800 0 0 14709200 -198800 0 0 -14709200zm397600 -100l4571700 0 0 14709300 -4571700 0 0 -14709300zm-397600 15106800l16100600 0 0 -198800 -16100600 0 0 198800zm15901800 -15106700l198800 0 0 14709200 -198800 0 0 -14709200zm-5168100 0l198800 0 0 14709200 -198800 0 0 -14709200zm397600 -100l4571800 0 0 14709300 -4571800 0 0 -14709300zm-11131300 -993800l16100600 0 0 795200 -16100600 0 0 -795200z"/>
 </g>
</svg>
