<?xml version="1.0" encoding="UTF-8"?>
<!DOCTYPE svg PUBLIC "-//W3C//DTD SVG 1.0//EN" "http://www.w3.org/TR/2001/REC-SVG-20010904/DTD/svg10.dtd">
<!-- Creator: CorelDRAW 2017 -->
<svg xmlns="http://www.w3.org/2000/svg" xml:space="preserve" width="140px" height="140px" version="1.0" style="shape-rendering:geometricPrecision; text-rendering:geometricPrecision; image-rendering:optimizeQuality; fill-rule:evenodd; clip-rule:evenodd"
viewBox="0 0 951500 951500"
 xmlns:xlink="http://www.w3.org/1999/xlink">
 <defs>
  <style type="text/css">
   <![CDATA[
    .fil1 {fill:#585F3B}
    .fil2 {fill:white}
    .fil0 {fill:#939E62}
   ]]>
  </style>
    <mask id="id0">
  <linearGradient id="id1" gradientUnits="userSpaceOnUse" x1="816600" y1="841300" x2="236800" y2="240900">
   <stop offset="0" style="stop-opacity:0; stop-color:white"/>
   <stop offset="0.2" style="stop-opacity:-127.502; stop-color:white"/>
   <stop offset="1" style="stop-opacity:1; stop-color:white"/>
  </linearGradient>
     <rect style="fill:url(#id1)" x="100000" y="129000" width="853400" height="824200"/>
    </mask>
 </defs>
 <g id="Слой_x0020_1">
  <metadata id="CorelCorpID_0Corel-Layer"/>
  <g id="_2036799705488">
   <circle class="fil0" cx="475700" cy="475700" r="475700"/>
   <path class="fil1" style="mask:url(#id0)" d="M951400 472200c0,1200 100,2400 100,3500 0,258800 -206600,469300 -463900,475600l-146300 -146300 -18000 -91300 -221400 -221400 243900 -63900 21300 -66700 -17000 -17000 156900 -213800 172000 171900 144700 41800 127700 127600z"/>
   <path class="fil2" d="M669300 295100c300,200 200,100 0,0zm-316800 363200c0,100 0,100 0,0zm406900 -350300l700 -200 63600 36800 -76600 27100c-24900,-800 -49500,-2800 -74300,-5400 -18500,-1900 -14800,2800 -23700,14000 -4700,5800 -17100,15700 -23900,18800 -5500,2500 -8900,5100 -15000,7300 -14900,5300 -29200,5200 -44700,4700 -10900,-400 -22100,-1000 -33000,-1800 -11300,-900 -13400,-200 -13600,11700l-800 41400 233600 68400 -49900 171300c-14200,-3400 -146200,-49600 -147000,-48800 -2000,2100 3500,16900 4400,20400 2200,8100 3700,17500 5400,25900 2500,12200 4800,24000 8100,36100 2600,9600 1000,10500 12100,6000 7900,-3200 19500,-6700 27900,-4600 8800,2100 17200,9500 17700,19000 400,8200 -9400,16700 -16100,20100 -6100,3100 -15700,5900 -22500,8000 -7000,2200 -16900,2500 -24500,3600 -13900,1900 -30000,2200 -44000,1700 -5100,-200 -10900,-300 -12000,-6100 -600,-3200 -800,-7900 -1300,-11400 -2100,-15300 -3500,-30900 -6600,-45900 -1300,-5700 -3200,-10600 -4300,-16500 -1300,-7400 -2300,-14900 -3700,-22300 -1500,-8100 -1200,-16100 -3900,-23900l-12100 -35700 -34400 -12400c-4500,-1600 -8100,15500 -9800,20300 -2600,7700 -5400,15700 -8200,23300 -3200,8300 -9200,18600 -13600,26600 -4700,8900 -9500,18400 -14500,27000 -2600,4500 -5000,7600 -7400,12500 -4600,9300 -8300,11000 -11100,22400 -2000,8400 -1400,13800 3600,21100 3600,5200 5000,4300 8700,8300 6000,7000 9600,15800 7600,25100 -1500,7000 -7700,6700 -13700,6800 -11100,200 -21100,-200 -32200,-1000 -6500,-600 -12700,200 -16100,-6400 -4700,-9000 -8100,-17000 -10700,-26900 -2000,-7200 -3900,-9300 -6600,-15700 -2600,-6300 -8300,-22600 -6400,-28900 2500,-8400 15200,-25100 20200,-34100 6300,-11100 12500,-19400 17300,-31400 3700,-9300 8500,-17000 12100,-26300 2100,-5500 8800,-22500 2700,-26600 -2800,-1900 -6700,-1700 -10600,-4000 -6000,-3600 -6900,-1700 -12400,-3600 -4300,-1800 -8600,-5300 -13000,-7700 -13300,-7200 -6700,-10300 -19800,-18800l-22000 -14400 -187200 -70600 40000 -127900 194900 50000c12400,3200 11100,-24000 18000,-35100 5600,-8800 10400,-17100 18700,-23700 6000,-4700 7300,-7600 -1800,-8600l-21600 -2300 -15500 -17500 5000 -29600 14800 -8200 16800 2100c12500,1600 5300,-5200 3300,-10900 -6800,-19400 -6500,-29700 -3800,-49900 1300,-10500 -800,-9000 -4100,-17800 -3500,-10100 2900,-13000 7500,-21300 6500,-11800 5400,-23000 12500,-35400 9800,-17000 25000,-29600 43400,-36300 15000,-5400 35800,-5700 51000,-1600 30500,8100 24700,14200 42500,33700 8700,9500 6700,12400 10700,23000 2200,5900 3800,9900 4900,16300 1200,7400 1900,7500 9800,7900 4600,200 19400,300 22800,1500 5700,2000 -4000,4600 -5500,4900 -7400,1400 -13900,-800 -21100,1000 -8000,2300 -10800,1000 -7200,10600 7300,19500 5700,54100 -4400,70700 -1500,2400 -2600,5100 -4600,7100 900,3300 4500,2400 7600,2500l55600 1800c1100,100 2200,100 3300,100 2800,-2700 500,200 1200,-3300l200 -3800c2500,-6500 5200,-9000 11200,-12300 6100,-2900 15700,-3500 22300,-2100 3000,600 7000,2100 9600,2100 5600,300 15000,6600 20400,9000 6300,2700 7800,4100 10700,10200 1100,2500 1600,3200 4400,3400l84000 5400z"/>
  </g>
 </g>
</svg>
