<?xml version="1.0" encoding="UTF-8"?>
<!DOCTYPE svg PUBLIC "-//W3C//DTD SVG 1.0//EN" "http://www.w3.org/TR/2001/REC-SVG-20010904/DTD/svg10.dtd">
<!-- Creator: CorelDRAW 2017 -->
<svg xmlns="http://www.w3.org/2000/svg" xml:space="preserve" width="140px" height="140px" version="1.0" style="shape-rendering:geometricPrecision; text-rendering:geometricPrecision; image-rendering:optimizeQuality; fill-rule:evenodd; clip-rule:evenodd"
viewBox="0 0 951500 951500"
 xmlns:xlink="http://www.w3.org/1999/xlink">
 <defs>
  <style type="text/css">
   <![CDATA[
    .fil0 {fill:#CB83D4}
    .fil2 {fill:white}
    .fil1 {fill:#712C7C}
   ]]>
  </style>
    <mask id="id0">
  <linearGradient id="id1" gradientUnits="userSpaceOnUse" x1="839000" y1="837100" x2="291800" y2="291100">
   <stop offset="0" style="stop-opacity:0; stop-color:white"/>
   <stop offset="0.2" style="stop-opacity:-127.502; stop-color:white"/>
   <stop offset="1" style="stop-opacity:1; stop-color:white"/>
  </linearGradient>
     <rect style="fill:url(#id1)" x="177500" y="175200" width="775900" height="777700"/>
    </mask>
 </defs>
 <g id="Слой_x0020_1">
  <metadata id="CorelCorpID_0Corel-Layer"/>
  <g id="_2036805221040">
   <circle class="fil0" cx="475700" cy="475700" r="475700"/>
   <path class="fil1" style="mask:url(#id0)" d="M760300 195000l180500 180500c7000,32300 10700,65800 10700,100200 0,256400 -202800,465300 -456700,475300l-315400 -315400 129200 -125000 109400 -181200 -23500 -28900 105300 -123400 119100 119200 56400 -114800 52000 52100 33000 -38600z"/>
   <path class="fil2" d="M772100 792400l0 6100 -5900 0c2000,-2000 3900,-4000 5900,-6100zm-319500 -277600c14500,0 15600,12700 16200,26300 400,10300 -16800,14700 -27500,14700l-21200 -24800c600,-6900 24300,-16200 32500,-16200zm-144000 -4200c12100,8100 9700,5800 30500,3600l1100 7700c-6100,1400 -13400,1300 -23000,600 -12000,-1000 -15000,1400 -8600,-11900zm26700 -4400l-500 1000 500 -1000zm51700 -51400c0,4300 6300,5500 10500,5600 0,11600 -13400,2400 -13400,9900 0,18700 -2200,37200 -3800,55800l-25100 -1600c-100,-4900 -5700,-5500 -10600,-5500 0,-3100 -700,-11400 -1200,-13600 -1400,-7100 -4200,-4000 -8700,-6100l0 -14100 4200 700c7500,0 22500,-36600 26600,-44100 11100,-20300 16000,-22200 22200,-48400l3800 33100c600,8800 -4500,19600 -4500,28300zm106600 -31800c0,-13900 1700,-16200 4300,-28900 1900,-9700 6200,-14900 7700,-21200 3600,2600 11900,23900 14800,29700 7800,15500 15600,15600 21200,23900l-35700 58200 -2900 -23600c-7700,-500 -13700,800 -13700,-4200 0,-7000 9900,-2800 9900,-8500 0,-8500 -5600,-15000 -5600,-25400zm-120800 -193500c0,5800 600,25500 1800,32100 9000,47600 50000,56200 52600,59700 -66500,0 -60600,54300 -88900,106700 -3900,7300 -21200,38700 -21200,45100 0,6500 6400,900 -4000,7400 -5200,3200 -10200,29900 -11600,35700 -13000,0 -10000,5000 -20400,4300l-70000 -4300c-2000,1500 -14700,17900 -17500,21300 -3600,4500 -10400,25600 -3600,30300 -5900,500 -10600,59800 -10600,67800 3600,1700 83500,24100 84700,24000l71600 -7100 15800 4800c-1000,14300 -17100,-900 -49700,13200 -11600,5000 -9500,14600 -9500,28600 0,10900 -200,8700 -1500,18300 -1500,10400 -200,9500 9800,10900 23800,3400 54000,6100 78000,-200 4800,-1200 31000,-8500 31000,-12100l-800 -9900c800,-12000 1500,-19100 1500,-31000 0,-14300 -22500,-5800 -23300,-16200 16100,0 14100,-3800 14100,-11300 0,-4600 -2600,-3900 4500,-4700l29400 -3800 6500 -48800c7300,100 12300,3800 15900,7300 5800,5500 6400,5900 4100,15100 -1900,7600 -8000,31200 -8200,37700 9000,6000 9900,-400 9900,9200 0,1700 3200,3000 -2400,6000 -2400,1300 -7200,1700 -9700,2300 -18900,4200 -11900,25700 -11900,43900 0,14100 400,11100 27500,18400 10000,2800 19900,6000 31800,7100 10300,1000 65700,1500 65700,-9200 0,-9000 -2100,-13400 -2100,-15600 0,-2900 1400,-4400 1400,-8500l0 -20400c0,-13600 -31700,-19500 -48700,-19100l-12000 500 -1800 -8200c5900,-1300 8700,-800 15200,-400 -500,-6200 -4900,-20100 -6300,-27300 -1800,-9500 -3500,-18500 -5100,-28000 -3900,-22400 6300,-31000 16300,-46000 9200,-13800 48100,-70600 53000,-79800 1000,500 4300,2100 5600,2100 7700,0 18700,-10500 22500,-15600 9700,-12900 5800,-15500 5800,-35300 0,-10600 61100,-93300 74100,-100900 23100,-13300 35600,-9500 58700,-28900 16100,-13500 25300,-32600 25300,-62200 0,-7000 -2400,-18000 -4000,-24200 -3600,-14100 5900,-18200 -17200,-18200 -15100,0 -16200,57500 -26700,67200 -5300,4900 -23500,15900 -32600,12000 -7800,-3400 -21900,-15600 -21900,-25500 0,-14100 13500,-42100 13500,-59300 0,-10400 -20200,-13000 -24900,-2300 -3300,7600 -10600,17800 -15200,25800 -16400,28700 -12900,31200 -12900,70400 0,15700 -59200,115000 -65000,116500 -900,-3600 -26300,-46700 -29800,-51400 -13300,-18000 -24000,-27000 -54900,-27000 3800,-3300 12100,-6200 17500,-10800 15600,-13000 28400,-33400 28400,-56300 0,-30700 -800,-46400 -14000,-65800 -10700,-15900 -27300,-27500 -49600,-31500 -45300,-8300 -84000,31700 -84000,75400z"/>
  </g>
 </g>
</svg>
