<?xml version="1.0" encoding="UTF-8"?>
<!DOCTYPE svg PUBLIC "-//W3C//DTD SVG 1.0//EN" "http://www.w3.org/TR/2001/REC-SVG-20010904/DTD/svg10.dtd">
<!-- Creator: CorelDRAW 2017 -->
<svg xmlns="http://www.w3.org/2000/svg" xml:space="preserve" width="128px" height="162px" version="1.0" style="shape-rendering:geometricPrecision; text-rendering:geometricPrecision; image-rendering:optimizeQuality; fill-rule:evenodd; clip-rule:evenodd"
viewBox="0 0 799600 1011800"
 xmlns:xlink="http://www.w3.org/1999/xlink">
 <defs>
  <style type="text/css">
   <![CDATA[
    .fil1 {fill:#333333}
    .fil0 {fill:#E6E6E6}
    .fil2 {fill:white}
   ]]>
  </style>
 </defs>
 <g id="Слой_x0020_1">
  <metadata id="CorelCorpID_0Corel-Layer"/>
  <g id="_2036787108784">
   <g>
    <path class="fil0" d="M399800 556500c41900,-600 97100,-32600 122300,-69600 25200,-37000 41400,-119800 50400,-181700 9000,-61900 7700,-150300 -25000,-194200 -32700,-43900 -58300,-63800 -147700,-63300 -89500,-500 -115000,19400 -147700,63300 -32800,43900 -34000,132300 -25000,194200 9000,61900 25200,144700 50400,181700 25200,37000 80400,69000 122300,69600z"/>
    <path class="fil1" d="M399800 39300c21200,-17800 99900,-6700 132700,20100 29400,24100 60900,58000 58300,120900 -1000,23900 -2500,98900 -13500,129700l-10000 27900c-500,1500 11000,-149300 -36100,-178200 -45500,-35300 -81900,9900 -131400,-1800 -49600,11700 -86000,-33500 -131400,1800 -47100,28900 -35600,179700 -36200,178200l-9900 -27900c-11000,-30800 -12600,-105800 -13500,-129700 -2600,-62900 28900,-96800 58300,-120900 32700,-26800 111500,-37900 132700,-20100z"/>
   </g>
   <path class="fil1" d="M574400 382500c2000,1400 4400,2200 7100,2200l29300 0c6800,0 12500,-5600 12500,-12500l0 -85300c7400,-21300 11300,-44100 11300,-67900 0,-121000 -105100,-219000 -234800,-219000 -129700,0 -234900,98000 -234900,219000 0,24000 4000,46900 11400,68300l0 84900c0,6900 5600,12500 12500,12500l29300 0c6900,0 12500,-5600 12500,-12500l0 -119300c0,-6900 -5600,-12500 -12500,-12500l-28600 0c-300,-4600 -500,-9400 -500,-14100 0,-114500 94400,-207200 210800,-207200 116400,0 210800,92700 210800,207200 0,4700 -200,9500 -500,14100l-28600 0c-6900,0 -12500,5600 -12500,12500 0,34800 0,69600 0,104400 -21900,70000 -69100,110700 -141300,121500 -7600,-10900 -20200,-13200 -27900,-13200 -16600,0 -30000,9500 -30000,21100 0,11700 13400,21100 30000,21100 13700,0 25300,-6500 28900,-15400 70600,-11400 119200,-48800 145700,-109900z"/>
   <path class="fil2" d="M556400 602100c37200,34000 81500,39900 123300,62500 47500,25700 78300,57800 94900,105700 16600,47900 25500,205700 24900,241500l-399700 0 -399800 0c-600,-35800 8300,-193600 24900,-241500 16600,-47900 47400,-80000 94900,-105700 41800,-22600 86200,-28500 123400,-62500l156600 120200 156600 -120200z"/>
   <path class="fil0" d="M498800 512800l0 0c15300,39800 34900,68500 57600,89300l-156600 120200 -156600 -120200c22700,-20800 42200,-49500 57600,-89300l0 0c28100,24900 67300,43300 99000,43700 31600,-400 70800,-18800 99000,-43700z"/>
  </g>
 </g>
</svg>
