<?xml version="1.0" encoding="UTF-8"?>
<!DOCTYPE svg PUBLIC "-//W3C//DTD SVG 1.0//EN" "http://www.w3.org/TR/2001/REC-SVG-20010904/DTD/svg10.dtd">
<!-- Creator: CorelDRAW 2017 -->
<svg xmlns="http://www.w3.org/2000/svg" xml:space="preserve" width="162px" height="162px" version="1.0" style="shape-rendering:geometricPrecision; text-rendering:geometricPrecision; image-rendering:optimizeQuality; fill-rule:evenodd; clip-rule:evenodd"
viewBox="0 0 1260500 1260500"
 xmlns:xlink="http://www.w3.org/1999/xlink">
 <defs>
  <style type="text/css">
   <![CDATA[
    .fil0 {fill:white}
   ]]>
  </style>
 </defs>
 <g id="Слой_x0020_1">
  <metadata id="CorelCorpID_0Corel-Layer"/>
  <path class="fil0" d="M606100 1103000c-5000,-35500 43600,-38600 48300,-9300 5300,33500 -44200,38500 -48300,9300zm9200 -592000c70300,-9200 126300,42600 134200,102900 9400,71200 -42200,127600 -102900,135600 -70700,9400 -127700,-41400 -135900,-103500 -9300,-71500 42700,-126900 104600,-135000zm475300 96200c14200,-5000 26600,3300 30700,14600 5300,14400 -3100,28200 -14700,31800 -32100,10100 -46600,-35500 -16000,-46400zm-936000 -200c32900,-10100 44100,37800 16300,46400 -33900,10400 -44500,-37800 -16300,-46400zm466700 -466900c28300,-14500 48800,33600 18900,44700 -30000,11100 -50700,-28500 -18900,-44700zm-621300 438000l0 17300c16600,25900 18000,82400 34000,92000 23700,14200 74100,30300 48300,69400 -13100,20000 -41700,11800 -68000,9200 4000,30400 33400,63500 51300,89200 10900,15700 11000,12800 32300,16700 27900,5100 56000,9900 51500,43100 -3800,27900 -31400,29800 -62100,34100 2400,19300 26000,31900 39200,42200l48300 36000c31200,-2000 73600,-16200 84500,15700 5700,16700 -2600,32000 -11700,39300 -10100,8200 -26700,11600 -35400,21000 15400,17200 69300,33100 97200,42400 24000,8000 44300,-22000 72000,-20200 13600,900 24800,9500 28500,20500 4800,14200 200,28200 -7500,36800 -11000,12400 -18800,15400 -24000,27100 40000,11500 29900,8000 79500,9000 55100,1200 35200,900 65300,-26000 45800,-40900 87700,4000 46100,62600l4900 5000 21300 0c22400,-14100 83300,-18800 92100,-33800 13800,-23400 29700,-74200 69300,-48500 19800,12800 12000,42000 9000,68100 25600,-3800 37400,-15000 61600,-32200 9600,-6800 18400,-12400 27800,-19000 16000,-11200 12700,-10900 16800,-32600 4900,-26700 9500,-56600 42900,-51300 29200,4500 29500,31800 34200,61800 20400,-2300 44500,-42600 60100,-62700 6300,-8100 12700,-15200 18100,-24600 -2000,-31400 -16300,-73300 15700,-84400 39100,-13700 49500,36900 60100,47000 16500,-14600 21100,-37100 31000,-64300 4300,-12000 8100,-22700 12100,-34900 4200,-12600 -3400,-21400 -9000,-33100 -4500,-9700 -12000,-22400 -11900,-34600 400,-33700 39100,-41400 57700,-23600 4300,4200 7700,8000 12100,12500 8100,8300 6100,7700 14700,11700 12100,-39300 7900,-34100 9100,-81900 1400,-53900 -2000,-34600 -27400,-64000 -15700,-18200 -23600,-45100 2700,-58900 30900,-16000 45400,14000 66200,12800l0 -24900c-8900,-13800 -15800,-47500 -21000,-65500 -4800,-16700 -3200,-20700 -16300,-28100 -22300,-12700 -42600,-18500 -49300,-36900 -4200,-11800 -300,-25200 5200,-32600 13600,-18500 42500,-10000 67200,-7500 -2900,-20800 -4700,-21400 -14100,-35400l-39200 -56800c-19000,-27200 -93500,-4800 -81400,-58800 6200,-27500 31600,-27100 61400,-32200 -700,-9000 -9100,-19400 -15100,-24000l-72200 -54100c-31500,1800 -73000,16200 -84400,-15800 -13900,-38900 36900,-49600 46900,-60100 -13900,-16600 -37300,-21300 -64200,-30900 -47700,-17000 -35600,-18300 -71500,-1700 -17500,8000 -53300,21800 -62400,-12200 -9600,-35300 21900,-39100 32100,-61900 -16400,-4900 -16900,-7800 -37700,-8100 -104300,-1900 -70400,-7100 -107000,25300 -45900,40700 -88100,-4600 -46300,-62800 -400,-400 -1200,-1000 -1500,-1200l-9200 -3800 -15400 0c-13900,8900 -47500,15700 -65500,21000 -27000,7800 -22400,4200 -42800,43400 -13900,26500 -36800,30200 -54700,17000 -18500,-13600 -9800,-42500 -7500,-67100 -20700,2900 -21600,4500 -35500,14000l-56700 39200c-27300,19200 -4400,93500 -58900,81300 -27000,-6000 -27700,-31800 -32200,-61400 -18000,1700 -32400,26500 -42100,39000l-36100 48400c1900,31300 16500,73300 -15700,84400 -39900,13800 -46000,-33800 -60200,-46900 -15900,13400 -21600,37900 -30800,64300 -3600,10400 -10800,27500 -12900,36800 -4400,19800 25900,44900 21000,72300 -2100,11600 -10500,21700 -21900,24800 -29900,8000 -42800,-18600 -54500,-27900 -6000,-4600 -1000,-1300 -7500,-4300 -11400,37900 -8100,35400 -9000,82100 -1000,51700 -1900,31300 26200,62600 40500,45000 -3600,88300 -62900,46300 -2600,2700 -800,400 -3100,4400 -400,500 -1500,3600 -1800,4400z"/>
 </g>
</svg>
