<?xml version="1.0" encoding="UTF-8"?>
<!DOCTYPE svg PUBLIC "-//W3C//DTD SVG 1.0//EN" "http://www.w3.org/TR/2001/REC-SVG-20010904/DTD/svg10.dtd">
<!-- Creator: CorelDRAW 2017 -->
<svg xmlns="http://www.w3.org/2000/svg" xml:space="preserve" width="162px" height="162px" version="1.0" style="shape-rendering:geometricPrecision; text-rendering:geometricPrecision; image-rendering:optimizeQuality; fill-rule:evenodd; clip-rule:evenodd"
viewBox="0 0 1260500 1260500"
 xmlns:xlink="http://www.w3.org/1999/xlink">
 <defs>
  <style type="text/css">
   <![CDATA[
    .fil0 {fill:#FEFEFE}
   ]]>
  </style>
 </defs>
 <g id="Слой_x0020_1">
  <metadata id="CorelCorpID_0Corel-Layer"/>
  <path class="fil0" d="M435700 77800l389100 0 0 1151600 -389100 0 0 -1151600zm-31100 0l15600 0 0 1151600 -15600 0 0 -1151600zm-404600 0l15600 0 0 1151600 -15600 0 0 -1151600zm31100 0l357900 0 0 1151600 -357900 0 0 -1151600zm-31100 1182700l1260500 0 0 -15500 -1260500 0 0 15500zm1245000 -1182700l15500 0 0 1151600 -15500 0 0 -1151600zm-404700 0l15600 0 0 1151600 -15600 0 0 -1151600zm31200 0l357900 0 0 1151600 -357900 0 0 -1151600zm-871500 -77800l1260500 0 0 62300 -1260500 0 0 -62300z"/>
 </g>
</svg>
