<?xml version="1.0" encoding="UTF-8"?>
<!DOCTYPE svg PUBLIC "-//W3C//DTD SVG 1.0//EN" "http://www.w3.org/TR/2001/REC-SVG-20010904/DTD/svg10.dtd">
<!-- Creator: CorelDRAW 2017 -->
<svg xmlns="http://www.w3.org/2000/svg" xml:space="preserve" width="72px" height="72px" version="1.0" style="shape-rendering:geometricPrecision; text-rendering:geometricPrecision; image-rendering:optimizeQuality; fill-rule:evenodd; clip-rule:evenodd"
viewBox="0 0 309200 309200"
 xmlns:xlink="http://www.w3.org/1999/xlink">
 <defs>
  <style type="text/css">
   <![CDATA[
    .fil0 {fill:white}
   ]]>
  </style>
 </defs>
 <g id="Слой_x0020_1">
  <metadata id="CorelCorpID_0Corel-Layer"/>
  <path class="fil0" d="M25800 0l257600 0c14200,0 25800,11600 25800,25800l0 257600c0,14200 -11600,25800 -25800,25800l-257600 0c-14200,0 -25800,-11600 -25800,-25800l0 -257600c0,-14200 11600,-25800 25800,-25800zm239200 95200c1600,-5400 0,-9300 -7700,-9300l-25300 0c-6400,0 -9400,3400 -11000,7200 0,0 -12900,31300 -31100,51700 -5900,5900 -8600,7800 -11800,7800 -1600,0 -3900,-1900 -3900,-7200l0 -50200c0,-6400 -1900,-9300 -7300,-9300l-39700 0c-4100,0 -6500,3000 -6500,5800 0,6100 9100,7500 10100,24700l0 37300c0,8100 -1500,9600 -4700,9600 -8600,0 -29500,-31500 -41900,-67600 -2400,-7000 -4800,-9800 -11300,-9800l-25300 0c-7200,0 -8700,3400 -8700,7200 0,6700 8600,39900 40000,83900 20900,30000 50400,46300 77200,46300 16100,0 18100,-3600 18100,-9800l0 -22700c0,-7300 1500,-8700 6600,-8700 3700,0 10200,1900 25200,16300 17200,17200 20000,24900 29600,24900l25300 0c7300,0 10900,-3600 8800,-10700 -2300,-7200 -10500,-17500 -21300,-29700 -5900,-7000 -14800,-14500 -17500,-18200 -3700,-4900 -2700,-7000 0,-11300 0,0 30900,-43400 34100,-58200z"/>
 </g>
</svg>
